<?xml version="1.0" encoding="UTF-8"?>
<svg id="version1" xmlns="http://www.w3.org/2000/svg" viewBox="0 0 303.85 188.28">
  <defs>
    <style>
      .cls-1 {
        letter-spacing: 0em;
      }

      .cls-2 {
        letter-spacing: 0em;
      }

      .cls-3 {
        letter-spacing: 0em;
      }

      .cls-4 {
        letter-spacing: 0em;
      }

      .cls-5 {
        fill: #e5a168;
        font-family: Sanserata, Sanserata;
        font-size: 14px;
      }

      .cls-6 {
        letter-spacing: 0em;
      }

      .cls-7 {
        letter-spacing: 0em;
      }

      .cls-8 {
        fill: #f4f4f4;
        stroke-width: 0px;
      }

      .cls-9 {
        letter-spacing: 0em;
      }

      .cls-10 {
        letter-spacing: 0em;
      }

      .cls-11 {
        fill: #87b59c;
        font-family: Active-Regular, Active;
        font-size: 76px;
      }
    </style>
  </defs>
  <path class="cls-8" d="m96.43,23.63c-2.99,3.43-20.13,20.44-22.57,38.06-1.93,13.93-7.64,33.18-7.35,47.24.16,7.57-.04,23.9,1.84,31.23,1.15,4.49,12.71,38.16,17.59,40.94,33.43,19.1,104.27-5.67,107.35-8.92,3.51-3.72,26.77-16.99,29.13-21.52,4.25-8.16,7.09-10.24,9.19-20.47,1.84-8.97,3.66-18.29,3.37-27.44-.55-17.32-.5-34.26-5.73-50.78-3.3-10.44-9.97-26.01-16.8-30.71C199.72,12.51,169.86-.4,154.43,0c-7.61.2-30.47,5.38-38.06,6.04-6.9.59-15.58,12.58-19.95,17.59Z"/>
  <text class="cls-11" transform="translate(15.92 94.14)"><tspan x="0" y="0">m</tspan><tspan class="cls-4" x="36.4" y="0">i</tspan><tspan class="cls-10" x="52.9" y="0">c</tspan><tspan class="cls-7" x="76.45" y="0">h</tspan><tspan class="cls-9" x="106.4" y="0">i</tspan><tspan class="cls-6" x="123.5" y="0">n</tspan><tspan x="154.66" y="0">a</tspan><tspan class="cls-1" x="183" y="0">nn</tspan><tspan x="246.16" y="0">y</tspan></text>
  <text class="cls-5" transform="translate(39.64 114.58)"><tspan x="0" y="0">CUI</tspan><tspan class="cls-3" x="23.38" y="0">D</tspan><tspan x="33.54" y="0">A</tspan><tspan class="cls-2" x="42.38" y="0">D</tspan><tspan x="52.58" y="0">O DE MICHIS A </tspan><tspan class="cls-2" x="149.91" y="0">D</tspan><tspan x="160.12" y="0">OMICILIO</tspan></text>
</svg>