<?xml version="1.0" encoding="UTF-8"?>
<svg id="Capa_1" data-name="Capa 1" xmlns="http://www.w3.org/2000/svg" xmlns:xlink="http://www.w3.org/1999/xlink" viewBox="0 0 120.17 100.31">
  <defs>
    <style>
      .cls-1 {
        fill: url(#linear-gradient);
      }

      .cls-1, .cls-2 {
        stroke-width: 0px;
      }

      .cls-2 {
        fill: url(#linear-gradient-2);
      }
    </style>
    <linearGradient id="linear-gradient" x1="131.46" y1="149.93" x2="33.75" y2="13.34" gradientUnits="userSpaceOnUse">
      <stop offset="0" stop-color="#c1292e"/>
      <stop offset=".99" stop-color="#f39323"/>
    </linearGradient>
    <linearGradient id="linear-gradient-2" x1="133.77" y1="148.64" x2="35.11" y2="10.72" xlink:href="#linear-gradient"/>
  </defs>
  <path class="cls-1" d="m114.54,38.8L73.69,4.7c-3.63-3.03-8.47-4.7-13.61-4.7s-9.97,1.67-13.61,4.7L5.63,38.8c-7.5,6.26-7.5,16.45,0,22.71l40.85,34.09h0c3.63,3.03,8.47,4.7,13.61,4.7s9.97-1.67,13.61-4.7l40.85-34.09c7.5-6.26,7.5-16.45,0-22.71Zm-9.79,14.54l-40.85,34.09c-1.02.85-2.37,1.32-3.81,1.32s-2.79-.47-3.81-1.32L15.42,53.34c-1.02-.85-1.58-1.98-1.58-3.18s.56-2.33,1.58-3.18L56.27,12.88c1.02-.85,2.37-1.32,3.81-1.32s2.79.47,3.81,1.32l40.85,34.09c1.02.85,1.58,1.98,1.58,3.18s-.56,2.33-1.58,3.18Z"/>
  <path class="cls-2" d="m77.22,33.33h-34.75l-14.26,12.05h24.4v28.96c2.88,2.41,4.5,3.76,7.38,6.16h0c2.88-2.41,4.5-3.76,7.38-6.16v-28.96h24.23l-14.38-12.05Z"/>
</svg>